<svg width="32" height="32" viewBox="0 0 32 32" fill="none" xmlns="http://www.w3.org/2000/svg">
<path d="M16 3C8.82021 3 3 8.82021 3 16C3 23.1798 8.82021 29 16 29C23.1798 29 29 23.1798 29 16C29 8.82021 23.1798 3 16 3ZM20.9996 17.667C20.9996 17.667 22.1493 18.8018 22.4323 19.3285C22.4404 19.3394 22.4445 19.3502 22.4472 19.3556C22.5623 19.5493 22.5894 19.6996 22.5325 19.812C22.4377 19.9989 22.1127 20.0909 22.0017 20.0991H19.9704C19.8296 20.0991 19.5344 20.0625 19.1769 19.816C18.902 19.6238 18.6311 19.3082 18.3671 19.0008C17.973 18.5431 17.6318 18.1477 17.2878 18.1477C17.2441 18.1476 17.2007 18.1545 17.1592 18.168C16.8992 18.252 16.566 18.623 16.566 19.6116C16.566 19.9203 16.3223 20.0977 16.1503 20.0977H15.22C14.9031 20.0977 13.2524 19.9867 11.7899 18.4443C9.99969 16.5552 8.38823 12.7662 8.37469 12.731C8.27312 12.4859 8.48302 12.3546 8.71187 12.3546H10.7634C11.037 12.3546 11.1264 12.5211 11.1886 12.6687C11.2618 12.8407 11.5299 13.5246 11.97 14.2937C12.6836 15.5477 13.121 16.0569 13.4718 16.0569C13.5375 16.0561 13.6021 16.0394 13.66 16.0081C14.1177 15.7535 14.0324 14.1218 14.0121 13.7832C14.0121 13.7196 14.0107 13.0533 13.7765 12.7337C13.6085 12.5022 13.3228 12.4142 13.1495 12.3817C13.2196 12.2849 13.3121 12.2064 13.419 12.1528C13.7331 11.9957 14.2992 11.9727 14.8611 11.9727H15.174C15.7833 11.9808 15.9404 12.0201 16.1611 12.0756C16.608 12.1826 16.6175 12.471 16.5782 13.4582C16.566 13.7385 16.5539 14.0554 16.5539 14.4292C16.5539 14.5104 16.5498 14.5971 16.5498 14.6892C16.5363 15.1916 16.52 15.7617 16.8748 15.9959C16.9211 16.025 16.9745 16.0404 17.0292 16.0406C17.1524 16.0406 17.5234 16.0406 18.5282 14.3168C18.8381 13.7619 19.1074 13.1853 19.334 12.5916C19.3543 12.5564 19.4139 12.448 19.4843 12.406C19.5362 12.3795 19.5939 12.3661 19.6522 12.3668H22.064C22.3267 12.3668 22.5068 12.406 22.5406 12.5076C22.6002 12.6687 22.5298 13.1603 21.4289 14.6512L20.9373 15.2999C19.9393 16.608 19.9393 16.6744 20.9996 17.667Z" fill="white"/>
</svg>
