<svg width="32" height="32" viewBox="0 0 32 32" fill="none" xmlns="http://www.w3.org/2000/svg">
<path d="M16 3C8.824 3 3 8.824 3 16C3 23.176 8.824 29 16 29C23.176 29 29 23.176 29 16C29 8.824 23.176 3 16 3ZM22.032 11.84C21.837 13.894 20.992 18.886 20.563 21.187C20.381 22.162 20.017 22.487 19.679 22.526C18.925 22.591 18.353 22.032 17.625 21.551C16.481 20.797 15.831 20.329 14.726 19.601C13.439 18.756 14.271 18.288 15.012 17.534C15.207 17.339 18.535 14.31 18.6 14.037C18.609 13.9957 18.6078 13.9527 18.5965 13.9119C18.5852 13.8712 18.5641 13.8338 18.535 13.803C18.457 13.738 18.353 13.764 18.262 13.777C18.145 13.803 16.325 15.012 12.776 17.404C12.256 17.755 11.788 17.937 11.372 17.924C10.904 17.911 10.02 17.664 9.357 17.443C8.538 17.183 7.901 17.04 7.953 16.585C7.979 16.351 8.304 16.117 8.915 15.87C12.711 14.219 15.233 13.127 16.494 12.607C20.108 11.099 20.849 10.839 21.343 10.839C21.447 10.839 21.694 10.865 21.85 10.995C21.98 11.099 22.019 11.242 22.032 11.346C22.019 11.424 22.045 11.658 22.032 11.84Z" fill="white"/>
</svg>
