<svg width="32" height="32" viewBox="0 0 32 32" fill="none" xmlns="http://www.w3.org/2000/svg">
<path d="M13.3337 20.0001L20.2537 16.0001L13.3337 12.0001V20.0001ZM28.747 9.56008C28.9203 10.1867 29.0403 11.0267 29.1203 12.0934C29.2137 13.1601 29.2537 14.0801 29.2537 14.8801L29.3337 16.0001C29.3337 18.9201 29.1203 21.0667 28.747 22.4401C28.4137 23.6401 27.6403 24.4134 26.4403 24.7467C25.8137 24.9201 24.667 25.0401 22.907 25.1201C21.1737 25.2134 19.587 25.2534 18.1203 25.2534L16.0003 25.3334C10.4137 25.3334 6.93366 25.1201 5.56033 24.7467C4.36033 24.4134 3.58699 23.6401 3.25366 22.4401C3.08033 21.8134 2.96033 20.9734 2.88033 19.9067C2.78699 18.8401 2.74699 17.9201 2.74699 17.1201L2.66699 16.0001C2.66699 13.0801 2.88033 10.9334 3.25366 9.56008C3.58699 8.36008 4.36033 7.58675 5.56033 7.25341C6.18699 7.08008 7.33366 6.96008 9.09366 6.88008C10.827 6.78675 12.4137 6.74675 13.8803 6.74675L16.0003 6.66675C21.587 6.66675 25.067 6.88008 26.4403 7.25341C27.6403 7.58675 28.4137 8.36008 28.747 9.56008Z" fill="white"/>
</svg>
