<?xml version="1.0" standalone="no"?>
<!DOCTYPE svg PUBLIC "-//W3C//DTD SVG 20010904//EN"
 "http://www.w3.org/TR/2001/REC-SVG-20010904/DTD/svg10.dtd">
<svg version="1.0" xmlns="http://www.w3.org/2000/svg"
 width="1184.000000pt" height="1184.000000pt" viewBox="0 0 1184.000000 1184.000000"
 preserveAspectRatio="xMidYMid meet">
<metadata>
Created by potrace 1.14, written by Peter Selinger 2001-2017
</metadata>
<g transform="translate(0.000000,1184.000000) scale(0.100000,-0.100000)"
fill="#000000" stroke="none">
<path d="M2787 11738 c-56 -57 -113 -119 -127 -137 -14 -19 -33 -42 -42 -52
-10 -11 -18 -23 -18 -29 0 -5 -3 -10 -7 -10 -5 0 -21 -23 -38 -51 -16 -28 -35
-56 -40 -62 -20 -23 -129 -257 -119 -257 3 0 0 -8 -5 -17 -5 -10 -12 -36 -16
-58 -4 -22 -9 -51 -12 -65 -10 -47 -11 -250 -3 -282 5 -18 11 -49 14 -68 9
-74 123 -357 149 -368 4 -2 7 -10 7 -18 0 -8 5 -14 10 -14 6 0 10 -5 10 -10 0
-9 65 -110 93 -145 7 -9 131 -174 177 -235 10 -14 34 -46 54 -73 20 -26 36
-51 36 -56 0 -4 9 -16 20 -26 11 -10 17 -22 14 -26 -3 -5 -1 -9 4 -9 12 0 59
-105 70 -155 20 -99 -12 -219 -82 -307 -11 -14 -32 -40 -44 -57 -13 -17 -41
-49 -63 -71 -21 -22 -39 -42 -39 -45 0 -2 105 -111 234 -241 l234 -237 29 29
c16 16 53 58 83 94 30 36 57 67 60 70 17 17 90 130 90 139 0 6 4 11 9 11 5 0
15 16 22 35 7 19 17 35 21 35 4 0 8 4 8 9 0 5 14 39 30 74 17 36 30 72 30 79
0 8 3 18 8 22 4 4 7 11 8 14 0 4 6 32 12 62 33 152 33 285 3 415 -19 81 -26
105 -50 170 -33 88 -169 328 -219 385 -19 23 -254 341 -285 386 -15 22 -27 45
-27 51 0 6 -4 13 -8 15 -5 2 -21 32 -35 68 -21 54 -25 78 -23 140 2 41 9 89
16 105 7 17 14 32 14 35 3 14 57 99 80 123 14 15 22 27 19 27 -3 0 35 41 86
90 50 50 91 95 91 99 0 5 -15 25 -32 44 -18 19 -46 50 -62 68 -26 30 -86 98
-201 227 -16 19 -43 49 -60 67 -16 18 -42 47 -58 65 l-27 32 -103 -104z"/>
<path d="M4453 11731 c-126 -131 -202 -226 -270 -339 -27 -44 -91 -178 -98
-202 0 -3 -8 -27 -17 -55 -47 -144 -57 -341 -24 -475 2 -8 7 -34 11 -58 4 -23
12 -45 16 -48 5 -3 7 -9 4 -14 -3 -5 -1 -11 5 -15 5 -3 10 -15 10 -25 0 -30
110 -236 181 -339 35 -52 69 -101 74 -109 12 -19 45 -60 63 -78 6 -7 12 -17
12 -22 0 -6 3 -12 8 -14 10 -4 72 -84 72 -92 0 -4 10 -17 23 -29 12 -12 29
-34 36 -49 8 -16 18 -28 23 -28 4 0 8 -4 8 -9 0 -6 13 -29 29 -53 15 -24 39
-71 53 -106 61 -152 7 -303 -175 -495 -37 -38 -37 -40 -20 -59 10 -11 116
-120 236 -241 l217 -221 55 58 c57 60 195 238 195 252 0 4 6 15 14 23 29 32
108 196 122 250 2 9 13 52 24 96 22 83 33 281 19 321 -4 12 -10 41 -13 65 -6
47 -10 65 -18 89 -3 8 -13 38 -23 65 -9 28 -25 69 -36 92 -10 24 -19 45 -19
47 0 10 -104 184 -136 227 -18 25 -31 49 -27 53 3 3 1 6 -5 6 -5 0 -19 15 -31
33 -11 17 -28 41 -38 52 -10 11 -30 36 -43 55 -13 19 -35 46 -47 60 -13 14
-23 28 -23 32 0 5 -8 16 -17 26 -28 27 -96 129 -134 197 -40 73 -57 138 -54
206 1 35 3 65 5 67 1 1 3 5 4 10 5 23 30 88 35 92 3 3 24 32 46 64 22 33 81
102 132 152 l92 93 -27 29 c-15 16 -52 58 -82 93 -30 35 -62 71 -70 79 -8 9
-42 47 -75 84 -33 38 -71 81 -85 96 -14 15 -41 45 -60 67 -19 21 -39 42 -45
45 -5 3 -56 -42 -112 -101z"/>
<path d="M6154 11761 c-108 -108 -131 -134 -200 -226 -116 -153 -204 -326
-229 -450 -2 -5 -8 -36 -15 -68 -15 -75 -19 -202 -8 -280 5 -34 10 -71 12 -82
1 -12 5 -25 8 -30 5 -9 11 -30 24 -90 18 -82 178 -367 263 -471 15 -17 33 -41
41 -53 29 -43 125 -166 132 -169 5 -2 8 -10 8 -17 0 -7 3 -15 8 -17 9 -4 62
-74 62 -82 0 -3 7 -14 15 -23 8 -10 15 -22 14 -27 0 -5 3 -12 8 -15 11 -7 46
-82 63 -135 19 -60 7 -153 -31 -231 -17 -36 -37 -72 -43 -78 -6 -7 -23 -28
-36 -47 -14 -19 -34 -44 -45 -55 -11 -11 -32 -34 -47 -51 l-28 -30 237 -239
236 -239 59 64 c33 35 86 100 119 144 33 45 63 86 67 91 21 27 87 154 113 218
56 134 73 228 72 382 -2 131 -6 175 -17 175 -5 0 -7 3 -4 6 4 3 2 20 -3 37 -6
18 -12 42 -15 55 -10 47 -78 203 -127 287 -40 71 -80 130 -88 133 -5 2 -9 8
-9 14 0 5 -21 37 -47 71 -27 34 -55 71 -63 83 -17 25 -163 219 -185 246 -7 9
-11 19 -8 22 4 3 2 6 -3 6 -15 0 -83 137 -91 185 -8 48 -9 146 -2 151 5 3 9
13 9 22 0 19 44 104 75 147 32 44 95 114 163 181 l64 62 -39 43 c-21 24 -40
46 -43 49 -3 3 -39 43 -80 89 -41 47 -82 92 -90 101 -8 9 -40 45 -71 81 -31
35 -72 81 -91 102 l-35 38 -79 -80z"/>
<path d="M1895 7780 l-210 -5 1 -3105 c0 -2819 3 -3203 21 -3263 3 -11 6 -29
8 -40 6 -41 35 -142 58 -197 12 -30 22 -57 22 -60 1 -12 78 -157 91 -171 8 -8
14 -19 14 -23 0 -8 73 -109 104 -144 60 -68 148 -151 221 -210 10 -7 78 -53
120 -80 40 -25 203 -101 231 -108 16 -4 34 -10 39 -13 9 -6 68 -22 133 -36 12
-3 30 -7 40 -9 9 -2 49 -7 87 -12 87 -9 4184 -11 4280 -1 149 15 253 38 335
74 19 9 42 17 50 19 23 5 169 82 217 115 23 16 45 29 50 29 4 0 14 9 21 20 7
11 17 20 23 20 6 0 23 12 39 28 16 15 48 45 72 67 182 170 344 467 383 703 3
17 8 47 11 65 12 72 14 118 15 505 l1 403 21 8 c12 5 45 12 72 16 28 5 52 9
55 10 3 1 23 5 45 10 56 13 55 12 58 15 1 1 9 3 17 5 42 9 187 58 198 67 6 6
12 8 12 5 0 -3 16 1 35 9 70 29 170 75 190 86 11 6 45 25 75 41 30 16 84 48
120 71 36 24 69 43 74 43 5 1 12 6 15 11 3 5 35 31 71 58 36 27 79 61 95 74
32 27 257 252 291 291 58 68 204 272 204 285 0 4 10 21 23 38 12 17 40 67 62
111 22 44 42 82 45 85 3 3 6 12 8 20 2 8 14 36 28 63 13 26 21 47 18 47 -4 0
-2 6 4 13 8 10 56 141 67 187 3 8 14 49 25 90 11 41 23 86 25 100 2 14 7 36
10 50 9 38 15 81 19 126 2 23 5 45 8 50 7 13 11 109 12 276 1 82 5 148 9 148
5 0 5 5 1 11 -10 17 -11 142 -1 157 5 6 6 12 1 12 -5 0 -9 32 -9 70 0 39 4 70
8 70 5 0 5 5 1 11 -10 17 -11 142 -1 157 5 6 6 12 1 12 -5 0 -9 32 -9 70 0 39
4 70 8 70 5 0 5 5 1 11 -10 17 -11 142 -1 157 5 6 6 12 1 12 -5 0 -9 32 -9 70
0 39 4 70 8 70 5 0 5 5 1 11 -10 17 -11 142 -1 157 5 6 6 12 1 12 -5 0 -9 32
-9 70 0 39 4 70 8 70 5 0 5 5 1 11 -10 17 -11 142 -1 157 6 7 6 12 -1 12 -5 0
-8 9 -5 20 3 11 3 30 -1 43 l-5 23 -983 -1 c-541 0 -991 1 -1000 3 -16 4 -17
53 -16 683 0 374 -1 682 -4 685 -7 6 -6201 10 -6473 4z m7812 -2658 c-4 -636
-5 -652 -53 -837 -9 -33 -17 -67 -19 -75 -8 -32 -36 -106 -45 -122 -6 -10 -10
-22 -10 -28 0 -13 -42 -103 -51 -110 -3 -3 -10 -16 -14 -30 -4 -14 -14 -33
-23 -42 -8 -10 -11 -18 -6 -18 5 0 4 -4 -1 -8 -6 -4 -23 -27 -37 -52 -24 -41
-60 -93 -130 -185 -77 -101 -307 -302 -433 -378 -102 -62 -349 -167 -428 -181
-12 -3 -22 -5 -22 -6 0 -1 -14 -4 -32 -6 l-31 -5 0 1345 0 1345 670 0 669 1
-4 -608z"/>
</g>
</svg>
